<svg width="91" height="25" viewBox="0 0 91 25" fill="none" xmlns="http://www.w3.org/2000/svg">
<path d="M49.464 19H46.976V7.2H51.016C51.9173 7.2 52.688 7.376 53.328 7.728C53.9733 8.07467 54.464 8.54667 54.8 9.144C55.1413 9.736 55.312 10.4053 55.312 11.152C55.312 11.8933 55.1387 12.5733 54.792 13.192C54.4507 13.8053 53.96 14.2987 53.32 14.672C52.68 15.04 51.912 15.224 51.016 15.224H49.464V19ZM49.464 14.456L48.344 13.304H50.752C51.168 13.304 51.5307 13.2213 51.84 13.056C52.1493 12.8853 52.3893 12.64 52.56 12.32C52.7307 11.9947 52.816 11.6053 52.816 11.152C52.816 10.6933 52.7307 10.3147 52.56 10.016C52.3947 9.712 52.1573 9.488 51.848 9.344C51.544 9.19467 51.1787 9.12 50.752 9.12H48.344L49.464 7.936V14.456ZM57.8844 15.496V13.856H63.5164L63.2764 14.272C63.2764 14.2293 63.2764 14.1893 63.2764 14.152C63.2764 14.1093 63.2764 14.0693 63.2764 14.032C63.2764 13.728 63.2044 13.4373 63.0604 13.16C62.9164 12.8773 62.6924 12.648 62.3884 12.472C62.0897 12.2907 61.7057 12.2 61.2364 12.2C60.767 12.2 60.3617 12.3013 60.0204 12.504C59.6844 12.7013 59.4257 12.9867 59.2444 13.36C59.0684 13.7333 58.9804 14.184 58.9804 14.712C58.9804 15.256 59.0657 15.7227 59.2364 16.112C59.4124 16.496 59.671 16.792 60.0124 17C60.359 17.208 60.7884 17.312 61.3004 17.312C61.631 17.312 61.9164 17.2827 62.1564 17.224C62.3964 17.16 62.591 17.08 62.7404 16.984C62.895 16.888 63.0124 16.7813 63.0924 16.664C63.1724 16.5467 63.2204 16.432 63.2364 16.32H65.6844C65.6524 16.6773 65.5297 17.0293 65.3164 17.376C65.103 17.7173 64.807 18.0267 64.4284 18.304C64.0497 18.576 63.5884 18.792 63.0444 18.952C62.5057 19.112 61.8897 19.192 61.1964 19.192C60.2577 19.192 59.439 19.0053 58.7404 18.632C58.0417 18.2533 57.5004 17.7333 57.1164 17.072C56.7324 16.4053 56.5404 15.6373 56.5404 14.768C56.5404 13.888 56.735 13.1173 57.1244 12.456C57.519 11.7893 58.0657 11.272 58.7644 10.904C59.4684 10.5307 60.2817 10.344 61.2044 10.344C62.1484 10.344 62.9644 10.5333 63.6524 10.912C64.3404 11.2853 64.871 11.8107 65.2444 12.488C65.6177 13.16 65.8044 13.944 65.8044 14.84C65.8044 14.9733 65.8017 15.1013 65.7964 15.224C65.791 15.3467 65.783 15.4373 65.7724 15.496H57.8844ZM67.8342 19V10.504H70.3222V13.432L69.8102 13.112C69.8689 12.712 69.9756 12.344 70.1302 12.008C70.2849 11.672 70.4849 11.3813 70.7302 11.136C70.9756 10.8853 71.2662 10.6907 71.6022 10.552C71.9436 10.4133 72.3329 10.344 72.7702 10.344C73.1116 10.344 73.3782 10.3707 73.5702 10.424C73.7676 10.472 73.8902 10.5093 73.9382 10.536L73.5302 12.76C73.4822 12.7333 73.3756 12.6907 73.2102 12.632C73.0449 12.5733 72.8316 12.544 72.5702 12.544C72.1436 12.544 71.7862 12.616 71.4982 12.76C71.2102 12.904 70.9782 13.096 70.8022 13.336C70.6316 13.5707 70.5089 13.832 70.4342 14.12C70.3596 14.408 70.3222 14.6987 70.3222 14.992V19H67.8342ZM76.7056 19V12.424H74.9376V10.504H76.7056V9.92C76.7056 9.35467 76.7803 8.872 76.9296 8.472C77.0843 8.06667 77.2923 7.73067 77.5536 7.464C77.815 7.192 78.1083 6.97867 78.4336 6.824C78.7643 6.664 79.103 6.552 79.4496 6.488C79.8016 6.41867 80.143 6.384 80.4736 6.384C80.8256 6.384 81.087 6.40533 81.2576 6.448C81.4336 6.48533 81.551 6.51733 81.6096 6.544V8.472C81.5456 8.45067 81.431 8.42667 81.2656 8.4C81.1056 8.37333 80.9323 8.36 80.7456 8.36C80.4363 8.36 80.1803 8.4 79.9776 8.48C79.775 8.56 79.615 8.67733 79.4976 8.832C79.3803 8.98133 79.2976 9.16 79.2496 9.368C79.2016 9.57067 79.1776 9.792 79.1776 10.032V10.504H81.4576V12.424H79.1776V19H76.7056ZM82.6256 19V10.504H85.0816V19H82.6256ZM83.8496 9.12C83.4656 9.12 83.1296 9.01867 82.8416 8.816C82.559 8.61333 82.4176 8.328 82.4176 7.96C82.4176 7.58667 82.559 7.29867 82.8416 7.096C83.1296 6.89333 83.4656 6.792 83.8496 6.792C84.239 6.792 84.575 6.89333 84.8576 7.096C85.1456 7.29867 85.2896 7.58667 85.2896 7.96C85.2896 8.33333 85.1456 8.62133 84.8576 8.824C84.575 9.02133 84.239 9.12 83.8496 9.12ZM89.9716 6.496V19H87.5236V6.496H89.9716Z" fill="#444955"/>
<path fill-rule="evenodd" clip-rule="evenodd" d="M16.9922 9.06249C16.9922 11.565 14.9634 13.5937 12.4609 13.5937C9.95839 13.5937 7.92969 11.565 7.92969 9.06249C7.92969 6.55995 9.95839 4.53125 12.4609 4.53125C14.9634 4.53125 16.9922 6.55995 16.9922 9.06249ZM14.7265 9.06249C14.7265 10.3138 13.7122 11.3281 12.4609 11.3281C11.2096 11.3281 10.1953 10.3138 10.1953 9.06249C10.1953 7.81122 11.2096 6.79687 12.4609 6.79687C13.7122 6.79687 14.7265 7.81122 14.7265 9.06249Z" fill="#444955"/>
<path fill-rule="evenodd" clip-rule="evenodd" d="M12.4609 0C5.57894 0 0 5.57894 0 12.4609C0 19.3428 5.57894 24.9218 12.4609 24.9218C19.3428 24.9218 24.9218 19.3428 24.9218 12.4609C24.9218 5.57894 19.3428 0 12.4609 0ZM2.26562 12.4609C2.26562 14.8287 3.0728 17.008 4.427 18.7386C6.28987 16.2999 9.22817 14.7265 12.534 14.7265C15.7968 14.7265 18.7018 16.2593 20.5679 18.6441C21.8779 16.929 22.6562 14.7859 22.6562 12.4609C22.6562 6.83021 18.0916 2.26562 12.4609 2.26562C6.83021 2.26562 2.26562 6.83021 2.26562 12.4609ZM12.4609 22.6562C10.0251 22.6562 7.7888 21.8019 6.03523 20.3767C7.4692 18.3302 9.84531 16.9921 12.534 16.9921C15.1892 16.9921 17.5396 18.2972 18.9789 20.301C17.2118 21.7716 14.9396 22.6562 12.4609 22.6562Z" fill="#444955"/>
</svg>
