<svg width="121" height="22" viewBox="0 0 121 22" fill="none" xmlns="http://www.w3.org/2000/svg">
<path d="M8.4584 2.11339C6.77592 2.11339 5.16235 2.78175 3.97266 3.97145C2.78296 5.16114 2.1146 6.77471 2.1146 8.45719C2.1146 10.1397 2.78296 11.7532 3.97266 12.9429C5.16235 14.1326 6.77592 14.801 8.4584 14.801C10.1409 14.801 11.7545 14.1326 12.9441 12.9429C14.1338 11.7532 14.8022 10.1397 14.8022 8.45719C14.8022 6.77471 14.1338 5.16114 12.9441 3.97145C11.7545 2.78175 10.1409 2.11339 8.4584 2.11339ZM5.22478e-08 8.45719C0.000192773 7.1111 0.32165 5.78449 0.937655 4.58762C1.55366 3.39075 2.44642 2.35818 3.54175 1.57574C4.63707 0.793288 5.90332 0.283557 7.23527 0.0889044C8.56721 -0.105748 9.92638 0.020301 11.1998 0.456576C12.4732 0.89285 13.6242 1.62675 14.5569 2.59728C15.4897 3.56781 16.1773 4.74695 16.5627 6.03669C16.9481 7.32643 17.0201 8.68953 16.7728 10.0127C16.5254 11.3359 15.9658 12.5809 15.1405 13.6443L20.8362 19.34C21.0288 19.5394 21.1354 19.8065 21.133 20.0837C21.1306 20.3609 21.0194 20.6261 20.8233 20.8221C20.6273 21.0182 20.3621 21.1293 20.0849 21.1318C19.8077 21.1342 19.5406 21.0276 19.3412 20.835L13.6455 15.1393C12.3952 16.11 10.8976 16.7104 9.32302 16.8722C7.74843 17.034 6.16003 16.7508 4.73845 16.0546C3.31686 15.3585 2.11914 14.2774 1.28147 12.9343C0.443811 11.5912 -0.000175851 10.0401 5.22478e-08 8.45719V8.45719Z" fill="#5C606A"/>
<path d="M47.464 17H44.976V5.2H49.016C49.9173 5.2 50.688 5.376 51.328 5.728C51.9733 6.07467 52.464 6.54667 52.8 7.144C53.1413 7.736 53.312 8.40533 53.312 9.152C53.312 9.89333 53.1387 10.5733 52.792 11.192C52.4507 11.8053 51.96 12.2987 51.32 12.672C50.68 13.04 49.912 13.224 49.016 13.224H47.464V17ZM47.464 12.456L46.344 11.304H48.752C49.168 11.304 49.5307 11.2213 49.84 11.056C50.1493 10.8853 50.3893 10.64 50.56 10.32C50.7307 9.99467 50.816 9.60533 50.816 9.152C50.816 8.69333 50.7307 8.31467 50.56 8.016C50.3947 7.712 50.1573 7.488 49.848 7.344C49.544 7.19467 49.1787 7.12 48.752 7.12H46.344L47.464 5.936V12.456ZM55.8844 13.496V11.856H61.5164L61.2764 12.272C61.2764 12.2293 61.2764 12.1893 61.2764 12.152C61.2764 12.1093 61.2764 12.0693 61.2764 12.032C61.2764 11.728 61.2044 11.4373 61.0604 11.16C60.9164 10.8773 60.6924 10.648 60.3884 10.472C60.0897 10.2907 59.7057 10.2 59.2364 10.2C58.767 10.2 58.3617 10.3013 58.0204 10.504C57.6844 10.7013 57.4257 10.9867 57.2444 11.36C57.0684 11.7333 56.9804 12.184 56.9804 12.712C56.9804 13.256 57.0657 13.7227 57.2364 14.112C57.4124 14.496 57.671 14.792 58.0124 15C58.359 15.208 58.7884 15.312 59.3004 15.312C59.631 15.312 59.9164 15.2827 60.1564 15.224C60.3964 15.16 60.591 15.08 60.7404 14.984C60.895 14.888 61.0124 14.7813 61.0924 14.664C61.1724 14.5467 61.2204 14.432 61.2364 14.32H63.6844C63.6524 14.6773 63.5297 15.0293 63.3164 15.376C63.103 15.7173 62.807 16.0267 62.4284 16.304C62.0497 16.576 61.5884 16.792 61.0444 16.952C60.5057 17.112 59.8897 17.192 59.1964 17.192C58.2577 17.192 57.439 17.0053 56.7404 16.632C56.0417 16.2533 55.5004 15.7333 55.1164 15.072C54.7324 14.4053 54.5404 13.6373 54.5404 12.768C54.5404 11.888 54.735 11.1173 55.1244 10.456C55.519 9.78933 56.0657 9.272 56.7644 8.904C57.4684 8.53067 58.2817 8.344 59.2044 8.344C60.1484 8.344 60.9644 8.53333 61.6524 8.912C62.3404 9.28533 62.871 9.81067 63.2444 10.488C63.6177 11.16 63.8044 11.944 63.8044 12.84C63.8044 12.9733 63.8017 13.1013 63.7964 13.224C63.791 13.3467 63.783 13.4373 63.7724 13.496H55.8844ZM69.3702 17.192C68.8636 17.192 68.3756 17.1333 67.9062 17.016C67.4369 16.8987 67.0156 16.7253 66.6422 16.496C66.2742 16.2667 65.9809 15.9813 65.7622 15.64C65.5489 15.2933 65.4422 14.8907 65.4422 14.432C65.4422 14.4107 65.4422 14.3867 65.4422 14.36C65.4422 14.328 65.4422 14.304 65.4422 14.288H67.9062C67.9062 14.304 67.9062 14.3227 67.9062 14.344C67.9062 14.36 67.9062 14.3787 67.9062 14.4C67.9062 14.7093 68.0422 14.936 68.3142 15.08C68.5916 15.224 68.9649 15.296 69.4342 15.296C69.6796 15.296 69.9142 15.272 70.1382 15.224C70.3676 15.1707 70.5542 15.088 70.6982 14.976C70.8476 14.8587 70.9222 14.712 70.9222 14.536C70.9222 14.2533 70.7649 14.0533 70.4502 13.936C70.1409 13.8187 69.6422 13.7013 68.9542 13.584C68.5649 13.52 68.1702 13.4293 67.7702 13.312C67.3702 13.1947 67.0022 13.04 66.6662 12.848C66.3302 12.6507 66.0609 12.4027 65.8582 12.104C65.6556 11.8 65.5542 11.432 65.5542 11C65.5542 10.424 65.7276 9.93867 66.0742 9.544C66.4262 9.14933 66.8929 8.85067 67.4742 8.648C68.0556 8.44533 68.6956 8.344 69.3942 8.344C70.0609 8.344 70.6822 8.456 71.2582 8.68C71.8342 8.89867 72.3009 9.216 72.6582 9.632C73.0156 10.0427 73.1942 10.5387 73.1942 11.12C73.1942 11.1307 73.1942 11.1467 73.1942 11.168C73.1942 11.1893 73.1942 11.2107 73.1942 11.232H70.7542C70.7542 11.2107 70.7542 11.192 70.7542 11.176C70.7542 11.16 70.7542 11.1467 70.7542 11.136C70.7542 10.9227 70.6849 10.7493 70.5462 10.616C70.4129 10.4827 70.2422 10.384 70.0342 10.32C69.8262 10.2507 69.6102 10.216 69.3862 10.216C69.1836 10.216 68.9729 10.24 68.7542 10.288C68.5409 10.3307 68.3596 10.4053 68.2102 10.512C68.0609 10.6133 67.9862 10.7573 67.9862 10.944C67.9862 11.1253 68.0662 11.2747 68.2262 11.392C68.3862 11.504 68.6102 11.5973 68.8982 11.672C69.1862 11.7413 69.5196 11.808 69.8982 11.872C70.2556 11.9307 70.6316 12.0133 71.0262 12.12C71.4262 12.2213 71.7996 12.368 72.1462 12.56C72.4982 12.7467 72.7809 12.9947 72.9942 13.304C73.2129 13.608 73.3222 13.9947 73.3222 14.464C73.3222 14.9493 73.2102 15.3653 72.9862 15.712C72.7622 16.0587 72.4582 16.3413 72.0742 16.56C71.6956 16.7733 71.2716 16.9307 70.8022 17.032C70.3382 17.1387 69.8609 17.192 69.3702 17.192ZM78.8975 17.192C78.1882 17.192 77.5348 17.024 76.9375 16.688C76.3402 16.3467 75.8602 15.8427 75.4975 15.176C75.1348 14.5093 74.9535 13.688 74.9535 12.712C74.9535 11.7787 75.1375 10.9867 75.5055 10.336C75.8788 9.68533 76.3642 9.192 76.9615 8.856C77.5642 8.51467 78.2095 8.344 78.8975 8.344C79.5695 8.344 80.1828 8.51467 80.7375 8.856C81.2975 9.19733 81.7455 9.664 82.0815 10.256C82.4175 10.8427 82.5855 11.52 82.5855 12.288C82.5855 12.3147 82.5855 12.3413 82.5855 12.368C82.5855 12.3893 82.5855 12.4133 82.5855 12.44L81.5135 12.456C81.5135 12.44 81.5135 12.424 81.5135 12.408C81.5135 12.3867 81.5135 12.368 81.5135 12.352C81.5135 11.952 81.4175 11.608 81.2255 11.32C81.0335 11.032 80.7855 10.8107 80.4815 10.656C80.1775 10.496 79.8602 10.416 79.5295 10.416C78.9802 10.416 78.5055 10.6 78.1055 10.968C77.7055 11.3307 77.5055 11.912 77.5055 12.712C77.5055 13.512 77.7055 14.1013 78.1055 14.48C78.5108 14.8533 78.9855 15.04 79.5295 15.04C79.8708 15.04 80.1935 14.96 80.4975 14.8C80.8015 14.6347 81.0468 14.4027 81.2335 14.104C81.4202 13.8053 81.5135 13.4533 81.5135 13.048L82.5855 13.104C82.5855 13.8667 82.4202 14.5573 82.0895 15.176C81.7642 15.7893 81.3215 16.28 80.7615 16.648C80.2068 17.0107 79.5855 17.192 78.8975 17.192ZM81.5135 20.496V8.504H84.0015V20.496H81.5135ZM89.3884 17.16C88.7857 17.16 88.2897 17.064 87.9004 16.872C87.511 16.6747 87.2044 16.4107 86.9804 16.08C86.7564 15.7493 86.599 15.3813 86.5084 14.976C86.4177 14.5707 86.3724 14.16 86.3724 13.744C86.3724 13.552 86.3724 13.3493 86.3724 13.136C86.3724 12.9227 86.3724 12.704 86.3724 12.48V8.504H88.8524V12.088C88.8524 12.2693 88.8524 12.4453 88.8524 12.616C88.8524 12.7867 88.8524 12.944 88.8524 13.088C88.8524 13.4453 88.8924 13.7733 88.9724 14.072C89.0524 14.3707 89.199 14.6107 89.4124 14.792C89.631 14.9733 89.9404 15.064 90.3404 15.064C90.7297 15.064 91.0604 14.9547 91.3324 14.736C91.6044 14.512 91.8124 14.2267 91.9564 13.88C92.1004 13.5333 92.1724 13.176 92.1724 12.808L92.8684 13.376C92.8684 13.9093 92.7857 14.4053 92.6204 14.864C92.4604 15.3227 92.231 15.7253 91.9324 16.072C91.6337 16.4133 91.2684 16.68 90.8364 16.872C90.4097 17.064 89.927 17.16 89.3884 17.16ZM92.1724 17V8.504H94.6524V17H92.1724ZM96.897 17V8.504H99.353V17H96.897ZM98.121 7.12C97.737 7.12 97.401 7.01867 97.113 6.816C96.8303 6.61333 96.689 6.328 96.689 5.96C96.689 5.58667 96.8303 5.29867 97.113 5.096C97.401 4.89333 97.737 4.792 98.121 4.792C98.5103 4.792 98.8463 4.89333 99.129 5.096C99.417 5.29867 99.561 5.58667 99.561 5.96C99.561 6.33333 99.417 6.62133 99.129 6.824C98.8463 7.02133 98.5103 7.12 98.121 7.12ZM105.197 17.192C104.69 17.192 104.202 17.1333 103.733 17.016C103.263 16.8987 102.842 16.7253 102.469 16.496C102.101 16.2667 101.807 15.9813 101.589 15.64C101.375 15.2933 101.269 14.8907 101.269 14.432C101.269 14.4107 101.269 14.3867 101.269 14.36C101.269 14.328 101.269 14.304 101.269 14.288H103.733C103.733 14.304 103.733 14.3227 103.733 14.344C103.733 14.36 103.733 14.3787 103.733 14.4C103.733 14.7093 103.869 14.936 104.141 15.08C104.418 15.224 104.791 15.296 105.261 15.296C105.506 15.296 105.741 15.272 105.965 15.224C106.194 15.1707 106.381 15.088 106.525 14.976C106.674 14.8587 106.749 14.712 106.749 14.536C106.749 14.2533 106.591 14.0533 106.277 13.936C105.967 13.8187 105.469 13.7013 104.781 13.584C104.391 13.52 103.997 13.4293 103.597 13.312C103.197 13.1947 102.829 13.04 102.493 12.848C102.157 12.6507 101.887 12.4027 101.685 12.104C101.482 11.8 101.381 11.432 101.381 11C101.381 10.424 101.554 9.93867 101.901 9.544C102.253 9.14933 102.719 8.85067 103.301 8.648C103.882 8.44533 104.522 8.344 105.221 8.344C105.887 8.344 106.509 8.456 107.085 8.68C107.661 8.89867 108.127 9.216 108.485 9.632C108.842 10.0427 109.021 10.5387 109.021 11.12C109.021 11.1307 109.021 11.1467 109.021 11.168C109.021 11.1893 109.021 11.2107 109.021 11.232H106.581C106.581 11.2107 106.581 11.192 106.581 11.176C106.581 11.16 106.581 11.1467 106.581 11.136C106.581 10.9227 106.511 10.7493 106.373 10.616C106.239 10.4827 106.069 10.384 105.861 10.32C105.653 10.2507 105.437 10.216 105.213 10.216C105.01 10.216 104.799 10.24 104.581 10.288C104.367 10.3307 104.186 10.4053 104.037 10.512C103.887 10.6133 103.813 10.7573 103.813 10.944C103.813 11.1253 103.893 11.2747 104.053 11.392C104.213 11.504 104.437 11.5973 104.725 11.672C105.013 11.7413 105.346 11.808 105.725 11.872C106.082 11.9307 106.458 12.0133 106.853 12.12C107.253 12.2213 107.626 12.368 107.973 12.56C108.325 12.7467 108.607 12.9947 108.821 13.304C109.039 13.608 109.149 13.9947 109.149 14.464C109.149 14.9493 109.037 15.3653 108.813 15.712C108.589 16.0587 108.285 16.3413 107.901 16.56C107.522 16.7733 107.098 16.9307 106.629 17.032C106.165 17.1387 105.687 17.192 105.197 17.192ZM114.052 17.176C113.433 17.176 112.881 17.0773 112.396 16.88C111.916 16.6827 111.54 16.3973 111.268 16.024C110.996 15.6507 110.86 15.1973 110.86 14.664C110.86 14.0613 111.025 13.5707 111.356 13.192C111.686 12.8133 112.124 12.5253 112.668 12.328C113.217 12.1253 113.812 11.992 114.452 11.928C115.385 11.8373 116.028 11.7547 116.38 11.68C116.737 11.6053 116.916 11.4747 116.916 11.288C116.916 11.2827 116.916 11.2773 116.916 11.272C116.916 10.9573 116.764 10.7093 116.46 10.528C116.161 10.3467 115.742 10.256 115.204 10.256C114.633 10.256 114.196 10.36 113.892 10.568C113.593 10.7707 113.444 11.0827 113.444 11.504H111.004C111.004 10.8213 111.188 10.2453 111.556 9.776C111.929 9.30667 112.433 8.952 113.068 8.712C113.702 8.46667 114.42 8.344 115.22 8.344C115.966 8.344 116.657 8.45867 117.292 8.688C117.926 8.912 118.436 9.25067 118.82 9.704C119.209 10.1573 119.404 10.7333 119.404 11.432C119.404 11.544 119.404 11.656 119.404 11.768C119.404 11.8747 119.404 11.984 119.404 12.096V15.104C119.404 15.3227 119.409 15.5333 119.42 15.736C119.436 15.9333 119.468 16.1147 119.516 16.28C119.569 16.4667 119.636 16.6213 119.716 16.744C119.796 16.8667 119.862 16.952 119.916 17H117.476C117.438 16.9627 117.38 16.8853 117.3 16.768C117.225 16.6507 117.161 16.5147 117.108 16.36C117.044 16.1733 116.996 15.9867 116.964 15.8C116.937 15.608 116.924 15.384 116.924 15.128L117.436 15.48C117.286 15.832 117.044 16.136 116.708 16.392C116.377 16.6427 115.982 16.8373 115.524 16.976C115.07 17.1093 114.58 17.176 114.052 17.176ZM114.716 15.32C115.105 15.32 115.468 15.2507 115.804 15.112C116.145 14.968 116.422 14.744 116.636 14.44C116.849 14.136 116.956 13.7387 116.956 13.248V12.392L117.572 12.992C117.22 13.12 116.812 13.2267 116.348 13.312C115.889 13.392 115.43 13.456 114.972 13.504C114.428 13.5573 114.02 13.6507 113.748 13.784C113.481 13.912 113.348 14.1307 113.348 14.44C113.348 14.7333 113.462 14.9547 113.692 15.104C113.921 15.248 114.262 15.32 114.716 15.32Z" fill="#444955"/>
</svg>
