<svg width="125" height="23" viewBox="0 0 125 23" fill="none" xmlns="http://www.w3.org/2000/svg">
<path d="M48.336 9.12L49.456 7.936V12.904L48.688 12.28H53.512V14.2H48.688L49.456 13.528V19H46.976V7.2H54.224V9.12H48.336ZM58.6405 19.176C58.0218 19.176 57.4698 19.0773 56.9845 18.88C56.5045 18.6827 56.1285 18.3973 55.8565 18.024C55.5845 17.6507 55.4485 17.1973 55.4485 16.664C55.4485 16.0613 55.6138 15.5707 55.9445 15.192C56.2752 14.8133 56.7125 14.5253 57.2565 14.328C57.8058 14.1253 58.4005 13.992 59.0405 13.928C59.9738 13.8373 60.6165 13.7547 60.9685 13.68C61.3258 13.6053 61.5045 13.4747 61.5045 13.288C61.5045 13.2827 61.5045 13.2773 61.5045 13.272C61.5045 12.9573 61.3525 12.7093 61.0485 12.528C60.7498 12.3467 60.3312 12.256 59.7925 12.256C59.2218 12.256 58.7845 12.36 58.4805 12.568C58.1818 12.7707 58.0325 13.0827 58.0325 13.504H55.5925C55.5925 12.8213 55.7765 12.2453 56.1445 11.776C56.5178 11.3067 57.0218 10.952 57.6565 10.712C58.2912 10.4667 59.0085 10.344 59.8085 10.344C60.5552 10.344 61.2458 10.4587 61.8805 10.688C62.5152 10.912 63.0245 11.2507 63.4085 11.704C63.7978 12.1573 63.9925 12.7333 63.9925 13.432C63.9925 13.544 63.9925 13.656 63.9925 13.768C63.9925 13.8747 63.9925 13.984 63.9925 14.096V17.104C63.9925 17.3227 63.9978 17.5333 64.0085 17.736C64.0245 17.9333 64.0565 18.1147 64.1045 18.28C64.1578 18.4667 64.2245 18.6213 64.3045 18.744C64.3845 18.8667 64.4512 18.952 64.5045 19H62.0645C62.0272 18.9627 61.9685 18.8853 61.8885 18.768C61.8138 18.6507 61.7498 18.5147 61.6965 18.36C61.6325 18.1733 61.5845 17.9867 61.5525 17.8C61.5258 17.608 61.5125 17.384 61.5125 17.128L62.0245 17.48C61.8752 17.832 61.6325 18.136 61.2965 18.392C60.9658 18.6427 60.5712 18.8373 60.1125 18.976C59.6592 19.1093 59.1685 19.176 58.6405 19.176ZM59.3045 17.32C59.6938 17.32 60.0565 17.2507 60.3925 17.112C60.7338 16.968 61.0112 16.744 61.2245 16.44C61.4378 16.136 61.5445 15.7387 61.5445 15.248V14.392L62.1605 14.992C61.8085 15.12 61.4005 15.2267 60.9365 15.312C60.4778 15.392 60.0192 15.456 59.5605 15.504C59.0165 15.5573 58.6085 15.6507 58.3365 15.784C58.0698 15.912 57.9365 16.1307 57.9365 16.44C57.9365 16.7333 58.0512 16.9547 58.2805 17.104C58.5098 17.248 58.8512 17.32 59.3045 17.32ZM73.6342 10.504L71.0582 19H67.7142L65.0822 10.504H67.6422L69.5782 18.248H69.1942L71.0662 10.504H73.6342ZM79.2265 19.184C78.3092 19.184 77.5012 18.9947 76.8025 18.616C76.1038 18.2373 75.5572 17.7173 75.1625 17.056C74.7732 16.3893 74.5785 15.6213 74.5785 14.752C74.5785 13.888 74.7732 13.1253 75.1625 12.464C75.5572 11.7973 76.1038 11.28 76.8025 10.912C77.5012 10.5387 78.3092 10.352 79.2265 10.352C80.1438 10.352 80.9518 10.5387 81.6505 10.912C82.3492 11.28 82.8932 11.7973 83.2825 12.464C83.6772 13.1253 83.8745 13.888 83.8745 14.752C83.8745 15.6213 83.6772 16.3893 83.2825 17.056C82.8932 17.7173 82.3492 18.2373 81.6505 18.616C80.9518 18.9947 80.1438 19.184 79.2265 19.184ZM79.2265 17.216C79.6585 17.216 80.0345 17.1147 80.3545 16.912C80.6745 16.7093 80.9225 16.424 81.0985 16.056C81.2745 15.6827 81.3625 15.248 81.3625 14.752C81.3625 14.256 81.2745 13.8267 81.0985 13.464C80.9225 13.096 80.6745 12.8133 80.3545 12.616C80.0345 12.4187 79.6585 12.32 79.2265 12.32C78.7998 12.32 78.4238 12.4187 78.0985 12.616C77.7785 12.8133 77.5305 13.096 77.3545 13.464C77.1785 13.8267 77.0905 14.256 77.0905 14.752C77.0905 15.248 77.1785 15.6827 77.3545 16.056C77.5305 16.424 77.7785 16.7093 78.0985 16.912C78.4238 17.1147 78.7998 17.216 79.2265 17.216ZM85.9036 19V10.504H88.3916V13.432L87.8796 13.112C87.9383 12.712 88.045 12.344 88.1996 12.008C88.3543 11.672 88.5543 11.3813 88.7996 11.136C89.045 10.8853 89.3356 10.6907 89.6716 10.552C90.013 10.4133 90.4023 10.344 90.8396 10.344C91.181 10.344 91.4476 10.3707 91.6396 10.424C91.837 10.472 91.9596 10.5093 92.0076 10.536L91.5996 12.76C91.5516 12.7333 91.445 12.6907 91.2796 12.632C91.1143 12.5733 90.901 12.544 90.6396 12.544C90.213 12.544 89.8556 12.616 89.5676 12.76C89.2796 12.904 89.0476 13.096 88.8716 13.336C88.701 13.5707 88.5783 13.832 88.5036 14.12C88.429 14.408 88.3916 14.6987 88.3916 14.992V19H85.9036ZM93.647 19V10.504H96.103V19H93.647ZM94.871 9.12C94.487 9.12 94.151 9.01867 93.863 8.816C93.5803 8.61333 93.439 8.328 93.439 7.96C93.439 7.58667 93.5803 7.29867 93.863 7.096C94.151 6.89333 94.487 6.792 94.871 6.792C95.2603 6.792 95.5963 6.89333 95.879 7.096C96.167 7.29867 96.311 7.58667 96.311 7.96C96.311 8.33333 96.167 8.62133 95.879 8.824C95.5963 9.02133 95.2603 9.12 94.871 9.12ZM102.587 19.176C102.261 19.176 101.925 19.1467 101.579 19.088C101.237 19.0347 100.917 18.9253 100.619 18.76C100.325 18.5893 100.088 18.3413 99.9065 18.016C99.7252 17.6907 99.6345 17.2613 99.6345 16.728C99.6345 16.6107 99.6345 16.4907 99.6345 16.368C99.6345 16.2453 99.6345 16.1227 99.6345 16V12.424H97.6745V10.504H98.2265C98.5465 10.504 98.7998 10.4907 98.9865 10.464C99.1785 10.4373 99.3198 10.3707 99.4105 10.264C99.5065 10.152 99.5678 9.97867 99.5945 9.744C99.6212 9.50933 99.6345 9.18667 99.6345 8.776V7.704H102.123V10.504H104.595V12.424H102.123V15.48C102.123 15.576 102.123 15.6693 102.123 15.76C102.123 15.8507 102.123 15.9387 102.123 16.024C102.123 16.392 102.165 16.6907 102.251 16.92C102.341 17.1493 102.563 17.264 102.915 17.264C103.091 17.264 103.256 17.248 103.411 17.216C103.571 17.184 103.691 17.152 103.771 17.12V18.984C103.659 19.032 103.501 19.0747 103.299 19.112C103.096 19.1547 102.859 19.176 102.587 19.176ZM109.255 19.176C108.636 19.176 108.084 19.0773 107.599 18.88C107.119 18.6827 106.743 18.3973 106.471 18.024C106.199 17.6507 106.063 17.1973 106.063 16.664C106.063 16.0613 106.228 15.5707 106.559 15.192C106.89 14.8133 107.327 14.5253 107.871 14.328C108.42 14.1253 109.015 13.992 109.655 13.928C110.588 13.8373 111.231 13.7547 111.583 13.68C111.94 13.6053 112.119 13.4747 112.119 13.288C112.119 13.2827 112.119 13.2773 112.119 13.272C112.119 12.9573 111.967 12.7093 111.663 12.528C111.364 12.3467 110.946 12.256 110.407 12.256C109.836 12.256 109.399 12.36 109.095 12.568C108.796 12.7707 108.647 13.0827 108.647 13.504H106.207C106.207 12.8213 106.391 12.2453 106.759 11.776C107.132 11.3067 107.636 10.952 108.271 10.712C108.906 10.4667 109.623 10.344 110.423 10.344C111.17 10.344 111.86 10.4587 112.495 10.688C113.13 10.912 113.639 11.2507 114.023 11.704C114.412 12.1573 114.607 12.7333 114.607 13.432C114.607 13.544 114.607 13.656 114.607 13.768C114.607 13.8747 114.607 13.984 114.607 14.096V17.104C114.607 17.3227 114.612 17.5333 114.623 17.736C114.639 17.9333 114.671 18.1147 114.719 18.28C114.772 18.4667 114.839 18.6213 114.919 18.744C114.999 18.8667 115.066 18.952 115.119 19H112.679C112.642 18.9627 112.583 18.8853 112.503 18.768C112.428 18.6507 112.364 18.5147 112.311 18.36C112.247 18.1733 112.199 17.9867 112.167 17.8C112.14 17.608 112.127 17.384 112.127 17.128L112.639 17.48C112.49 17.832 112.247 18.136 111.911 18.392C111.58 18.6427 111.186 18.8373 110.727 18.976C110.274 19.1093 109.783 19.176 109.255 19.176ZM109.919 17.32C110.308 17.32 110.671 17.2507 111.007 17.112C111.348 16.968 111.626 16.744 111.839 16.44C112.052 16.136 112.159 15.7387 112.159 15.248V14.392L112.775 14.992C112.423 15.12 112.015 15.2267 111.551 15.312C111.092 15.392 110.634 15.456 110.175 15.504C109.631 15.5573 109.223 15.6507 108.951 15.784C108.684 15.912 108.551 16.1307 108.551 16.44C108.551 16.7333 108.666 16.9547 108.895 17.104C109.124 17.248 109.466 17.32 109.919 17.32ZM120.438 19.192C119.931 19.192 119.443 19.1333 118.974 19.016C118.504 18.8987 118.083 18.7253 117.71 18.496C117.342 18.2667 117.048 17.9813 116.83 17.64C116.616 17.2933 116.51 16.8907 116.51 16.432C116.51 16.4107 116.51 16.3867 116.51 16.36C116.51 16.328 116.51 16.304 116.51 16.288H118.974C118.974 16.304 118.974 16.3227 118.974 16.344C118.974 16.36 118.974 16.3787 118.974 16.4C118.974 16.7093 119.11 16.936 119.382 17.08C119.659 17.224 120.032 17.296 120.502 17.296C120.747 17.296 120.982 17.272 121.206 17.224C121.435 17.1707 121.622 17.088 121.766 16.976C121.915 16.8587 121.99 16.712 121.99 16.536C121.99 16.2533 121.832 16.0533 121.518 15.936C121.208 15.8187 120.71 15.7013 120.022 15.584C119.632 15.52 119.238 15.4293 118.838 15.312C118.438 15.1947 118.07 15.04 117.734 14.848C117.398 14.6507 117.128 14.4027 116.926 14.104C116.723 13.8 116.622 13.432 116.622 13C116.622 12.424 116.795 11.9387 117.142 11.544C117.494 11.1493 117.96 10.8507 118.542 10.648C119.123 10.4453 119.763 10.344 120.462 10.344C121.128 10.344 121.75 10.456 122.326 10.68C122.902 10.8987 123.368 11.216 123.726 11.632C124.083 12.0427 124.262 12.5387 124.262 13.12C124.262 13.1307 124.262 13.1467 124.262 13.168C124.262 13.1893 124.262 13.2107 124.262 13.232H121.822C121.822 13.2107 121.822 13.192 121.822 13.176C121.822 13.16 121.822 13.1467 121.822 13.136C121.822 12.9227 121.752 12.7493 121.614 12.616C121.48 12.4827 121.31 12.384 121.102 12.32C120.894 12.2507 120.678 12.216 120.454 12.216C120.251 12.216 120.04 12.24 119.822 12.288C119.608 12.3307 119.427 12.4053 119.278 12.512C119.128 12.6133 119.054 12.7573 119.054 12.944C119.054 13.1253 119.134 13.2747 119.294 13.392C119.454 13.504 119.678 13.5973 119.966 13.672C120.254 13.7413 120.587 13.808 120.966 13.872C121.323 13.9307 121.699 14.0133 122.094 14.12C122.494 14.2213 122.867 14.368 123.214 14.56C123.566 14.7467 123.848 14.9947 124.062 15.304C124.28 15.608 124.39 15.9947 124.39 16.464C124.39 16.9493 124.278 17.3653 124.054 17.712C123.83 18.0587 123.526 18.3413 123.142 18.56C122.763 18.7733 122.339 18.9307 121.87 19.032C121.406 19.1387 120.928 19.192 120.438 19.192Z" fill="#444955"/>
<path fill-rule="evenodd" clip-rule="evenodd" d="M10.8599 20.1001L5.88257 22.8346C5.21025 23.204 4.37869 22.9339 4.02523 22.2313C3.88448 21.9515 3.83591 21.6311 3.88704 21.3195L4.83763 15.5277C4.91415 15.0615 4.76624 14.5857 4.44209 14.2556L0.415332 10.1538C-0.128585 9.59972 -0.139715 8.68979 0.390474 8.12139C0.601598 7.89505 0.878234 7.74775 1.17755 7.7023L6.7424 6.85728C7.19036 6.78926 7.5776 6.49525 7.77793 6.07106L10.2666 0.801481C10.6028 0.0896882 11.4274 -0.202556 12.1086 0.148734C12.3798 0.28862 12.5994 0.518041 12.7332 0.801481L15.2219 6.07106C15.4222 6.49525 15.8095 6.78926 16.2574 6.85728L21.8223 7.7023C22.5739 7.81644 23.0948 8.54575 22.9855 9.33126C22.942 9.64405 22.8011 9.93314 22.5845 10.1538L18.5577 14.2556C18.2336 14.5857 18.0857 15.0615 18.1622 15.5277L19.1128 21.3195C19.2412 22.1019 18.7384 22.8448 17.9897 22.979C17.6916 23.0325 17.385 22.9817 17.1173 22.8346L12.1399 20.1001C11.7392 19.88 11.2606 19.88 10.8599 20.1001ZM9.75244 18.0843C10.8428 17.4852 12.157 17.4852 13.2474 18.0843L16.5487 19.898L15.8926 15.9002C15.698 14.7148 16.0754 13.501 16.9164 12.6443L19.7875 9.71969L15.9121 9.13121C14.699 8.947 13.6662 8.16284 13.1422 7.05326L11.4999 3.57593L9.85767 7.05326C9.33364 8.16284 8.30082 8.947 7.0877 9.13121L3.21228 9.71969L6.08338 12.6443C6.92444 13.501 7.30182 14.7148 7.10727 15.9002L6.45112 19.898L9.75244 18.0843Z" fill="#444955"/>
</svg>
